<svg xmlns="http://www.w3.org/2000/svg" version="1.1" xmlns:xlink="http://www.w3.org/1999/xlink" xmlns:svgjs="http://svgjs.dev/svgjs" width="1000" height="280" viewBox="0 0 1000 280"><g transform="matrix(1,0,0,1,-0.6060606060606233,-0.009592944727927488)"><svg viewBox="0 0 396 111" data-background-color="#ffffff" preserveAspectRatio="xMidYMid meet" height="280" width="1000" xmlns="http://www.w3.org/2000/svg" xmlns:xlink="http://www.w3.org/1999/xlink"><g id="tight-bounds" transform="matrix(1,0,0,1,0.2400000000000091,0.0038029173742870626)"><svg viewBox="0 0 395.52 110.99239416525141" height="110.99239416525141" width="395.52"><g><svg viewBox="0 0 588.3500081088563 165.10511733198584" height="110.99239416525141" width="395.52"><g><rect width="4.57795555900281" height="165.10511733198584" x="176.26787569382515" y="0" fill="#085f63" opacity="1" stroke-width="0" stroke="transparent" fill-opacity="1" class="rect-o-0" data-fill-palette-color="primary" rx="1%" id="o-0" data-palette-color="#085f63"></rect></g><g transform="matrix(1,0,0,1,192.83000810885625,0.41070924709448775)"><svg viewBox="0 0 395.52 164.28369883779686" height="164.28369883779686" width="395.52"><g id="textblocktransform"><svg viewBox="0 0 395.52 164.28369883779686" height="164.28369883779686" width="395.52" id="textblock"><g><svg viewBox="0 0 395.52 164.28369883779686" height="164.28369883779686" width="395.52"><g transform="matrix(1,0,0,1,0,0)"><svg width="395.52" viewBox="2.8999993801116943 -37.099998474121094 298.3500061035156 119.79998779296875" height="164.28369883779686" data-palette-color="#085f63"><svg></svg><svg></svg><svg></svg><g class="undefined-text-0" data-fill-palette-color="primary" id="text-0"><path xmlns="http://www.w3.org/2000/svg" d="M5.25-37.1v0c0.367 0 0.96 0 1.78 0 0.813 0 1.697 0.007 2.65 0.02 0.947 0.02 1.83 0.03 2.65 0.03 0.813 0 1.42 0 1.82 0v0c4.567 0.067 8.283 0.827 11.15 2.28 2.867 1.447 4.977 3.503 6.33 6.17 1.347 2.667 2.02 5.933 2.02 9.8v0c0 4.067-0.723 7.5-2.17 10.3-1.453 2.8-3.653 4.917-6.6 6.35-2.953 1.433-6.68 2.15-11.18 2.15v0h-8.4c-0.6 0-0.9-0.3-0.9-0.9v0-35.4c0-0.3 0.067-0.51 0.2-0.63 0.133-0.113 0.35-0.17 0.65-0.17zM10.95-32.65v0c-0.333 0-0.5 0.233-0.5 0.7v0 26.95c0 0.4 0.2 0.6 0.6 0.6v0h1.65c3.367 0 6.133-0.467 8.3-1.4 2.167-0.933 3.767-2.443 4.8-4.53 1.033-2.08 1.55-4.837 1.55-8.27v0c0-3.533-0.517-6.317-1.55-8.35-1.033-2.033-2.607-3.493-4.72-4.38-2.12-0.88-4.813-1.32-8.08-1.32v0zM62.55-16.9h-15.05c-0.333 0-0.5 0.167-0.5 0.5v0 15.55c0 0.567-0.317 0.85-0.95 0.85v0h-4.25c-0.333 0-0.557-0.067-0.67-0.2-0.12-0.133-0.18-0.333-0.18-0.6v0-35.55c0-0.5 0.233-0.75 0.7-0.75v0h4.7c0.433 0 0.65 0.25 0.65 0.75v0 14.05c0 0.467 0.217 0.7 0.65 0.7v0h14.85c0.4 0 0.6-0.217 0.6-0.65v0-14.15c0-0.467 0.2-0.7 0.6-0.7v0h4.8c0.433 0 0.65 0.25 0.65 0.75v0 35.55c0 0.267-0.057 0.467-0.17 0.6-0.12 0.133-0.347 0.2-0.68 0.2v0h-4.2c-0.667 0-1-0.283-1-0.85v0-15.5c0-0.367-0.183-0.55-0.55-0.55zM76.2 0v0c-0.233 0-0.4-0.1-0.5-0.3-0.1-0.2-0.1-0.45 0-0.75v0l12.75-35.25c0.1-0.3 0.233-0.51 0.4-0.63 0.167-0.113 0.4-0.17 0.7-0.17v0h5.05c0.633 0 1.05 0.283 1.25 0.85v0l12.65 35.25c0.1 0.233 0.1 0.457 0 0.67-0.1 0.22-0.283 0.33-0.55 0.33v0h-4.7c-0.433 0-0.717-0.2-0.85-0.6v0l-3.2-8.9c-0.033-0.167-0.09-0.283-0.17-0.35-0.087-0.067-0.23-0.1-0.43-0.1v0h-13.85c-0.3 0-0.5 0.133-0.6 0.4v0l-3.25 9.05c-0.067 0.167-0.157 0.29-0.27 0.37-0.12 0.087-0.313 0.13-0.58 0.13v0zM86.15-14.65h10.9c0.433 0 0.567-0.233 0.4-0.7v0l-5.4-15c-0.133-0.267-0.257-0.4-0.37-0.4-0.12 0-0.23 0.15-0.33 0.45v0l-5.55 15c-0.167 0.433-0.05 0.65 0.35 0.65zM115-36.35v0c0-0.5 0.233-0.75 0.7-0.75v0h4.7c0.433 0 0.65 0.25 0.65 0.75v0 31.25c0 0.367 0.167 0.55 0.5 0.55v0h16.9c0.467 0 0.7 0.2 0.7 0.6v0 3.3c0 0.2-0.057 0.357-0.17 0.47-0.12 0.12-0.297 0.18-0.53 0.18v0h-22.6c-0.333 0-0.557-0.067-0.67-0.2-0.12-0.133-0.18-0.333-0.18-0.6v0zM173.55-26.05v0c0 2.467-0.567 4.507-1.7 6.12-1.133 1.62-2.7 2.83-4.7 3.63-2 0.8-4.3 1.2-6.9 1.2v0h-8.2c-0.333 0-0.5 0.167-0.5 0.5v0 13.75c0 0.567-0.3 0.85-0.9 0.85v0h-4.35c-0.3 0-0.507-0.06-0.62-0.18-0.12-0.113-0.18-0.303-0.18-0.57v0-35.6c0-0.5 0.233-0.75 0.7-0.75v0h13.35c2.633 0 5.01 0.383 7.13 1.15 2.113 0.767 3.787 1.967 5.02 3.6 1.233 1.633 1.85 3.733 1.85 6.3zM167.35-26.2v0c0-1.533-0.333-2.777-1-3.73-0.667-0.947-1.607-1.637-2.82-2.07-1.22-0.433-2.663-0.65-4.33-0.65v0h-6.9c-0.5 0-0.75 0.233-0.75 0.7v0 11.65c0 0.5 0.183 0.75 0.55 0.75v0h7.45c2.367 0 4.26-0.55 5.68-1.65 1.413-1.1 2.12-2.767 2.12-5zM173.85 0v0c-0.233 0-0.4-0.1-0.5-0.3-0.1-0.2-0.1-0.45 0-0.75v0l12.75-35.25c0.1-0.3 0.233-0.51 0.4-0.63 0.167-0.113 0.4-0.17 0.7-0.17v0h5.05c0.633 0 1.05 0.283 1.25 0.85v0l12.65 35.25c0.1 0.233 0.1 0.457 0 0.67-0.1 0.22-0.283 0.33-0.55 0.33v0h-4.7c-0.433 0-0.717-0.2-0.85-0.6v0l-3.2-8.9c-0.033-0.167-0.09-0.283-0.17-0.35-0.087-0.067-0.23-0.1-0.43-0.1v0h-13.85c-0.3 0-0.5 0.133-0.6 0.4v0l-3.25 9.05c-0.067 0.167-0.157 0.29-0.27 0.37-0.12 0.087-0.313 0.13-0.58 0.13v0zM183.8-14.65h10.9c0.433 0 0.567-0.233 0.4-0.7v0l-5.4-15c-0.133-0.267-0.257-0.4-0.37-0.4-0.12 0-0.23 0.15-0.33 0.45v0l-5.55 15c-0.167 0.433-0.05 0.65 0.35 0.65zM240.3-1.05v0c0.1 0.267 0.093 0.507-0.02 0.72-0.12 0.22-0.313 0.33-0.58 0.33v0h-4.85c-0.4 0-0.7-0.233-0.9-0.7v0l-6.1-15.2c-0.167-0.4-0.583-0.6-1.25-0.6v0h-7.3c-0.233 0-0.39 0.06-0.47 0.18-0.087 0.113-0.13 0.237-0.13 0.37v0 15.05c0 0.6-0.317 0.9-0.95 0.9v0h-4.25c-0.333 0-0.557-0.067-0.67-0.2-0.12-0.133-0.18-0.333-0.18-0.6v0-35.55c0-0.5 0.233-0.75 0.7-0.75v0h14.45c4.1 0 7.293 0.833 9.58 2.5 2.28 1.667 3.42 4.1 3.42 7.3v0c0 1.833-0.35 3.407-1.05 4.72-0.7 1.32-1.59 2.387-2.67 3.2-1.087 0.82-2.247 1.413-3.48 1.78v0c-0.233 0.1-0.3 0.3-0.2 0.6v0zM226.6-20.75v0c2.6 0 4.577-0.493 5.93-1.48 1.347-0.98 2.02-2.52 2.02-4.62v0c0-2-0.617-3.5-1.85-4.5-1.233-1-2.983-1.5-5.25-1.5v0h-7.95c-0.533 0-0.8 0.2-0.8 0.6v0 10.8c0 0.467 0.183 0.7 0.55 0.7v0zM244.9 0v0c-0.233 0-0.4-0.1-0.5-0.3-0.1-0.2-0.1-0.45 0-0.75v0l12.75-35.25c0.1-0.3 0.233-0.51 0.4-0.63 0.167-0.113 0.4-0.17 0.7-0.17v0h5.05c0.633 0 1.05 0.283 1.25 0.85v0l12.65 35.25c0.1 0.233 0.1 0.457 0 0.67-0.1 0.22-0.283 0.33-0.55 0.33v0h-4.7c-0.433 0-0.717-0.2-0.85-0.6v0l-3.2-8.9c-0.033-0.167-0.09-0.283-0.17-0.35-0.087-0.067-0.23-0.1-0.43-0.1v0h-13.85c-0.3 0-0.5 0.133-0.6 0.4v0l-3.25 9.05c-0.067 0.167-0.157 0.29-0.27 0.37-0.12 0.087-0.313 0.13-0.58 0.13v0zM254.85-14.65h10.9c0.433 0 0.567-0.233 0.4-0.7v0l-5.4-15c-0.133-0.267-0.257-0.4-0.37-0.4-0.12 0-0.23 0.15-0.33 0.45v0l-5.55 15c-0.167 0.433-0.05 0.65 0.35 0.65z" fill="#085f63" fill-rule="nonzero" stroke="none" stroke-width="1" stroke-linecap="butt" stroke-linejoin="miter" stroke-miterlimit="10" stroke-dasharray="" stroke-dashoffset="0" font-family="none" font-weight="none" font-size="none" text-anchor="none" style="mix-blend-mode: normal" data-fill-palette-color="primary" opacity="1"></path><path xmlns="http://www.w3.org/2000/svg" d="M18.8 41.6v0c-3.233 0-6.05-0.767-8.45-2.3-2.4-1.533-4.24-3.717-5.52-6.55-1.287-2.833-1.93-6.183-1.93-10.05v0c0-4 0.677-7.433 2.03-10.3 1.347-2.867 3.237-5.067 5.67-6.6 2.433-1.533 5.267-2.3 8.5-2.3v0c2.433 0 4.66 0.483 6.68 1.45 2.013 0.967 3.663 2.223 4.95 3.77 1.28 1.553 2.07 3.213 2.37 4.98v0c0.067 0.333 0.067 0.557 0 0.67-0.067 0.12-0.217 0.213-0.45 0.28v0l-4.55 0.7c-0.2 0.033-0.34 0-0.42-0.1-0.087-0.1-0.147-0.267-0.18-0.5v0c-0.233-1.267-0.733-2.41-1.5-3.43-0.767-1.013-1.74-1.83-2.92-2.45-1.187-0.613-2.547-0.92-4.08-0.92v0c-2.067 0-3.833 0.533-5.3 1.6-1.467 1.067-2.573 2.667-3.32 4.8-0.753 2.133-1.13 4.817-1.13 8.05v0c0 3.4 0.383 6.183 1.15 8.35 0.767 2.167 1.893 3.773 3.38 4.82 1.48 1.053 3.27 1.58 5.37 1.58v0c1.433 0 2.7-0.233 3.8-0.7 1.1-0.467 2.017-1.1 2.75-1.9 0.733-0.8 1.3-1.667 1.7-2.6 0.4-0.933 0.65-1.867 0.75-2.8v0l0.05-2.5c0.067-0.4-0.1-0.6-0.5-0.6v0h-7.5c-0.2 0-0.35-0.043-0.45-0.13-0.1-0.08-0.15-0.237-0.15-0.47v0-2.65c0-0.367 0.183-0.55 0.55-0.55v0l12.7 0.05c0.333 0 0.583 0.077 0.75 0.23 0.167 0.147 0.25 0.337 0.25 0.57v0 17.35c0 0.233-0.057 0.4-0.17 0.5-0.12 0.1-0.28 0.15-0.48 0.15v0h-1.3c-0.233 0-0.44-0.043-0.62-0.13-0.187-0.08-0.33-0.253-0.43-0.52v0l-0.8-4.3c-0.033-0.167-0.09-0.25-0.17-0.25-0.087 0-0.197 0.083-0.33 0.25v0c-0.6 0.933-1.373 1.817-2.32 2.65-0.953 0.833-2.12 1.507-3.5 2.02-1.387 0.52-3.03 0.78-4.93 0.78zM69.2 40.05v0c0.1 0.267 0.09 0.507-0.03 0.72-0.113 0.22-0.303 0.33-0.57 0.33v0h-4.85c-0.4 0-0.7-0.233-0.9-0.7v0l-6.1-15.2c-0.167-0.4-0.583-0.6-1.25-0.6v0h-7.3c-0.233 0-0.39 0.06-0.47 0.18-0.087 0.113-0.13 0.237-0.13 0.37v0 15.05c0 0.6-0.317 0.9-0.95 0.9v0h-4.25c-0.333 0-0.557-0.067-0.67-0.2-0.12-0.133-0.18-0.333-0.18-0.6v0-35.55c0-0.5 0.233-0.75 0.7-0.75v0h14.45c4.1 0 7.293 0.833 9.58 2.5 2.28 1.667 3.42 4.1 3.42 7.3v0c0 1.833-0.35 3.407-1.05 4.72-0.7 1.32-1.593 2.387-2.68 3.2-1.08 0.82-2.237 1.413-3.47 1.78v0c-0.233 0.1-0.3 0.3-0.2 0.6v0zM55.5 20.35v0c2.6 0 4.573-0.493 5.92-1.48 1.353-0.98 2.03-2.52 2.03-4.62v0c0-2-0.617-3.5-1.85-4.5-1.233-1-2.983-1.5-5.25-1.5v0h-7.95c-0.533 0-0.8 0.2-0.8 0.6v0 10.8c0 0.467 0.183 0.7 0.55 0.7v0zM73.8 41.1v0c-0.233 0-0.4-0.1-0.5-0.3-0.1-0.2-0.1-0.45 0-0.75v0l12.75-35.25c0.1-0.3 0.233-0.51 0.4-0.63 0.167-0.113 0.4-0.17 0.7-0.17v0h5.05c0.633 0 1.05 0.283 1.25 0.85v0l12.65 35.25c0.1 0.233 0.1 0.457 0 0.67-0.1 0.22-0.283 0.33-0.55 0.33v0h-4.7c-0.433 0-0.717-0.2-0.85-0.6v0l-3.2-8.9c-0.033-0.167-0.09-0.283-0.17-0.35-0.087-0.067-0.23-0.1-0.43-0.1v0h-13.85c-0.3 0-0.5 0.133-0.6 0.4v0l-3.25 9.05c-0.067 0.167-0.16 0.29-0.28 0.37-0.113 0.087-0.303 0.13-0.57 0.13v0zM83.75 26.45h10.9c0.433 0 0.567-0.233 0.4-0.7v0l-5.4-15c-0.133-0.267-0.26-0.4-0.38-0.4-0.113 0-0.22 0.15-0.32 0.45v0l-5.55 15c-0.167 0.433-0.05 0.65 0.35 0.65zM113.4 41.1v0c-0.533 0-0.8-0.283-0.8-0.85v0-35.5c0-0.5 0.233-0.75 0.7-0.75v0h6.55c0.3 0 0.517 0.04 0.65 0.12 0.133 0.087 0.233 0.247 0.3 0.48v0l10 26.25c0.133 0.3 0.267 0.44 0.4 0.42 0.133-0.013 0.25-0.17 0.35-0.47v0l9.85-26c0.2-0.533 0.5-0.8 0.9-0.8v0h6.8c0.433 0 0.65 0.25 0.65 0.75v0 35.45c0 0.6-0.3 0.9-0.9 0.9v0h-4.3c-0.3 0-0.517-0.06-0.65-0.18-0.133-0.113-0.2-0.32-0.2-0.62v0-27.4c0-0.2-0.043-0.283-0.13-0.25-0.08 0.033-0.137 0.133-0.17 0.3v0l-10.3 27.45c-0.167 0.467-0.483 0.7-0.95 0.7v0h-3c-0.533 0-0.883-0.217-1.05-0.65v0l-10.1-27.2c-0.1-0.2-0.183-0.3-0.25-0.3-0.067 0-0.1 0.1-0.1 0.3v0 27.15c0 0.233-0.05 0.407-0.15 0.52-0.1 0.12-0.3 0.18-0.6 0.18v0z" fill="#085f63" fill-rule="nonzero" stroke="none" stroke-width="1" stroke-linecap="butt" stroke-linejoin="miter" stroke-miterlimit="10" stroke-dasharray="" stroke-dashoffset="0" font-family="none" font-weight="none" font-size="none" text-anchor="none" style="mix-blend-mode: normal" data-fill-palette-color="primary" opacity="1"></path><path xmlns="http://www.w3.org/2000/svg" d="M32.45 56.15v0c0 2.467-0.567 4.507-1.7 6.12-1.133 1.62-2.7 2.83-4.7 3.63-2 0.8-4.3 1.2-6.9 1.2v0h-8.2c-0.333 0-0.5 0.167-0.5 0.5v0 13.75c0 0.567-0.3 0.85-0.9 0.85v0h-4.35c-0.3 0-0.507-0.06-0.62-0.18-0.12-0.113-0.18-0.303-0.18-0.57v0-35.6c0-0.5 0.233-0.75 0.7-0.75v0h13.35c2.633 0 5.01 0.383 7.13 1.15 2.113 0.767 3.787 1.967 5.02 3.6 1.233 1.633 1.85 3.733 1.85 6.3zM26.25 56v0c0-1.533-0.333-2.777-1-3.73-0.667-0.947-1.607-1.637-2.82-2.07-1.22-0.433-2.663-0.65-4.33-0.65v0h-6.9c-0.5 0-0.75 0.233-0.75 0.7v0 11.65c0 0.5 0.183 0.75 0.55 0.75v0h7.45c2.367 0 4.26-0.55 5.68-1.65 1.413-1.1 2.12-2.767 2.12-5zM32.75 82.2v0c-0.233 0-0.4-0.1-0.5-0.3-0.1-0.2-0.1-0.45 0-0.75v0l12.75-35.25c0.1-0.3 0.233-0.51 0.4-0.63 0.167-0.113 0.4-0.17 0.7-0.17v0h5.05c0.633 0 1.05 0.283 1.25 0.85v0l12.65 35.25c0.1 0.233 0.1 0.457 0 0.67-0.1 0.22-0.283 0.33-0.55 0.33v0h-4.7c-0.433 0-0.717-0.2-0.85-0.6v0l-3.2-8.9c-0.033-0.167-0.09-0.283-0.17-0.35-0.087-0.067-0.23-0.1-0.43-0.1v0h-13.85c-0.3 0-0.5 0.133-0.6 0.4v0l-3.25 9.05c-0.067 0.167-0.16 0.29-0.28 0.37-0.113 0.087-0.303 0.13-0.57 0.13v0zM42.7 67.55h10.9c0.433 0 0.567-0.233 0.4-0.7v0l-5.4-15c-0.133-0.267-0.26-0.4-0.38-0.4-0.113 0-0.22 0.15-0.32 0.45v0l-5.55 15c-0.167 0.433-0.05 0.65 0.35 0.65zM96.25 45.1h3.8c0.367 0 0.55 0.217 0.55 0.65v0 35.8c0 0.2-0.067 0.357-0.2 0.47-0.133 0.12-0.317 0.18-0.55 0.18v0h-3.25c-0.233 0-0.433-0.027-0.6-0.08-0.167-0.047-0.333-0.187-0.5-0.42v0l-18.25-26.2c-0.167-0.233-0.3-0.333-0.4-0.3-0.1 0.033-0.15 0.15-0.15 0.35v0 25.95c0 0.467-0.267 0.7-0.8 0.7v0h-3.55c-0.533 0-0.8-0.233-0.8-0.7v0-35.65c0-0.5 0.25-0.75 0.75-0.75v0h3.9c0.267 0 0.477 0.033 0.63 0.1 0.147 0.067 0.303 0.233 0.47 0.5v0l17.5 25.35c0.2 0.267 0.377 0.373 0.53 0.32 0.147-0.047 0.22-0.187 0.22-0.42v0-25.15c0-0.467 0.233-0.7 0.7-0.7zM123.95 44.6v0c1.767 0 3.44 0.277 5.02 0.83 1.587 0.547 3.013 1.303 4.28 2.27 1.267 0.967 2.31 2.073 3.13 3.32 0.813 1.253 1.337 2.613 1.57 4.08v0c0.067 0.367 0.067 0.607 0 0.72-0.067 0.12-0.217 0.197-0.45 0.23v0l-4.65 0.3c-0.2 0.033-0.333 0-0.4-0.1-0.067-0.1-0.133-0.25-0.2-0.45v0c-0.433-2-1.35-3.633-2.75-4.9-1.4-1.267-3.183-1.9-5.35-1.9v0c-3.167 0-5.607 1.2-7.32 3.6-1.72 2.4-2.58 6.067-2.58 11v0c0 4.867 0.843 8.5 2.53 10.9 1.68 2.4 4.203 3.6 7.57 3.6v0c2.233 0 4.107-0.543 5.62-1.63 1.52-1.08 2.763-2.853 3.73-5.32v0c0.1-0.233 0.35-0.317 0.75-0.25v0l3.55 0.85c0.1 0.033 0.2 0.1 0.3 0.2 0.1 0.1 0.117 0.317 0.05 0.65v0c-0.233 0.867-0.617 1.767-1.15 2.7-0.533 0.933-1.2 1.843-2 2.73-0.8 0.88-1.75 1.67-2.85 2.37-1.1 0.7-2.34 1.257-3.72 1.67-1.387 0.42-2.897 0.63-4.53 0.63v0c-3.367 0-6.26-0.783-8.68-2.35-2.413-1.567-4.27-3.783-5.57-6.65-1.3-2.867-1.95-6.25-1.95-10.15v0c0-3.933 0.65-7.317 1.95-10.15 1.3-2.833 3.15-5.01 5.55-6.53 2.4-1.513 5.25-2.27 8.55-2.27zM166.6 65.3h-15.05c-0.333 0-0.5 0.167-0.5 0.5v0 15.55c0 0.567-0.317 0.85-0.95 0.85v0h-4.25c-0.333 0-0.56-0.067-0.68-0.2-0.113-0.133-0.17-0.333-0.17-0.6v0-35.55c0-0.5 0.233-0.75 0.7-0.75v0h4.7c0.433 0 0.65 0.25 0.65 0.75v0 14.05c0 0.467 0.217 0.7 0.65 0.7v0h14.85c0.4 0 0.6-0.217 0.6-0.65v0-14.15c0-0.467 0.2-0.7 0.6-0.7v0h4.8c0.433 0 0.65 0.25 0.65 0.75v0 35.55c0 0.267-0.057 0.467-0.17 0.6-0.12 0.133-0.347 0.2-0.68 0.2v0h-4.2c-0.667 0-1-0.283-1-0.85v0-15.5c0-0.367-0.183-0.55-0.55-0.55zM180.25 82.2v0c-0.233 0-0.4-0.1-0.5-0.3-0.1-0.2-0.1-0.45 0-0.75v0l12.75-35.25c0.1-0.3 0.233-0.51 0.4-0.63 0.167-0.113 0.4-0.17 0.7-0.17v0h5.05c0.633 0 1.05 0.283 1.25 0.85v0l12.65 35.25c0.1 0.233 0.1 0.457 0 0.67-0.1 0.22-0.283 0.33-0.55 0.33v0h-4.7c-0.433 0-0.717-0.2-0.85-0.6v0l-3.2-8.9c-0.033-0.167-0.093-0.283-0.18-0.35-0.08-0.067-0.22-0.1-0.42-0.1v0h-13.85c-0.3 0-0.5 0.133-0.6 0.4v0l-3.25 9.05c-0.067 0.167-0.16 0.29-0.28 0.37-0.113 0.087-0.303 0.13-0.57 0.13v0zM190.2 67.55h10.9c0.433 0 0.567-0.233 0.4-0.7v0l-5.4-15c-0.133-0.267-0.26-0.4-0.38-0.4-0.113 0-0.22 0.15-0.32 0.45v0l-5.55 15c-0.167 0.433-0.05 0.65 0.35 0.65zM241.55 45.1v0c0.3 0 0.493 0.073 0.58 0.22 0.08 0.153 0.053 0.347-0.08 0.58v0l-11.85 19.7c-0.167 0.2-0.267 0.423-0.3 0.67-0.033 0.253-0.05 0.68-0.05 1.28v0 13.65c0 0.667-0.367 1-1.1 1v0h-4.05c-0.333 0-0.557-0.067-0.67-0.2-0.12-0.133-0.18-0.35-0.18-0.65v0-13.75c0-0.367-0.043-0.65-0.13-0.85-0.08-0.2-0.187-0.417-0.32-0.65v0l-12-20.05c-0.167-0.267-0.2-0.493-0.1-0.68 0.1-0.18 0.333-0.27 0.7-0.27v0h4.8c0.367 0 0.617 0.05 0.75 0.15 0.133 0.1 0.283 0.283 0.45 0.55v0l8.7 15.05c0.2 0.367 0.383 0.55 0.55 0.55 0.167 0 0.333-0.15 0.5-0.45v0l8.65-15.15c0.167-0.3 0.317-0.493 0.45-0.58 0.133-0.08 0.367-0.12 0.7-0.12v0zM241.4 82.2v0c-0.233 0-0.4-0.1-0.5-0.3-0.1-0.2-0.1-0.45 0-0.75v0l12.75-35.25c0.1-0.3 0.233-0.51 0.4-0.63 0.167-0.113 0.4-0.17 0.7-0.17v0h5.05c0.633 0 1.05 0.283 1.25 0.85v0l12.65 35.25c0.1 0.233 0.1 0.457 0 0.67-0.1 0.22-0.283 0.33-0.55 0.33v0h-4.7c-0.433 0-0.717-0.2-0.85-0.6v0l-3.2-8.9c-0.033-0.167-0.09-0.283-0.17-0.35-0.087-0.067-0.23-0.1-0.43-0.1v0h-13.85c-0.3 0-0.5 0.133-0.6 0.4v0l-3.25 9.05c-0.067 0.167-0.16 0.29-0.28 0.37-0.113 0.087-0.303 0.13-0.57 0.13v0zM251.35 67.55h10.9c0.433 0 0.567-0.233 0.4-0.7v0l-5.4-15c-0.133-0.267-0.257-0.4-0.37-0.4-0.12 0-0.23 0.15-0.33 0.45v0l-5.55 15c-0.167 0.433-0.05 0.65 0.35 0.65zM272.35 49v-3.2c0-0.233 0.06-0.41 0.18-0.53 0.113-0.113 0.303-0.17 0.57-0.17v0h27.45c0.267 0 0.45 0.057 0.55 0.17 0.1 0.12 0.15 0.297 0.15 0.53v0 3.2c0 0.4-0.233 0.6-0.7 0.6v0h-9.9c-0.367 0-0.55 0.15-0.55 0.45v0 31.4c0 0.5-0.217 0.75-0.65 0.75v0h-4.7c-0.433 0-0.65-0.233-0.65-0.7v0-31.35c0-0.367-0.183-0.55-0.55-0.55v0h-10.5c-0.467 0-0.7-0.2-0.7-0.6z" fill="#085f63" fill-rule="nonzero" stroke="none" stroke-width="1" stroke-linecap="butt" stroke-linejoin="miter" stroke-miterlimit="10" stroke-dasharray="" stroke-dashoffset="0" font-family="none" font-weight="none" font-size="none" text-anchor="none" style="mix-blend-mode: normal" data-fill-palette-color="primary" opacity="1"></path></g></svg></g></svg></g></svg></g></svg></g><g transform="matrix(1,0,0,1,0,0.41070924709448775)"><svg viewBox="0 0 164.28369883779686 164.28369883779686" height="164.28369883779686" width="164.28369883779686"><g><svg xmlns="http://www.w3.org/2000/svg" xmlns:xlink="http://www.w3.org/1999/xlink" version="1.1" x="0" y="0" viewBox="5 5 90 90" enable-background="new 0 0 100 100" xml:space="preserve" height="164.28369883779686" width="164.28369883779686" class="icon-icon-0" data-fill-palette-color="accent" id="icon-0"><path d="M70 5C56.2 5 45 16.2 45 30c0 6.7 2.6 12.8 6.9 17.3L59.5 70h-27v-2.5H50V60H5v7.5h17.5V70h-10v20H15v5h10v-5h42.5v5h10v-5H80V71.5l8.4-25.1c4.1-4.7 6.6-10.9 6.6-17.6C95 15.2 84.3 5 70 5zM7.5 65v-2.5h40V65H7.5zM30 67.5V70h-5v-2.5H30zM22.5 92.5h-5V90h5V92.5zM75 92.5h-5V90h5V92.5zM77.5 87.5H15v-15h62.5V87.5zM77.8 70H62.2l-6.5-19.6c4.1 2.9 9 4.6 14.4 4.6 5.4 0 10.4-1.9 14.5-5L77.8 70zM70 52.5c-12.4 0-22.5-10.1-22.5-22.5S57.6 7.5 70 7.5c12.8 0 22.5 9.2 22.5 21.3C92.5 41.7 82.2 52.5 70 52.5z" fill="#49beb7" data-fill-palette-color="accent"></path><path d="M71.3 23.9V11.3h-2.5v12.6c-2.8 0.6-5 3.1-5 6.1 0 3.4 2.8 6.3 6.3 6.3s6.3-2.8 6.3-6.3C76.3 27 74.1 24.5 71.3 23.9zM70 33.8c-2.1 0-3.8-1.7-3.8-3.8s1.7-3.8 3.8-3.8 3.8 1.7 3.8 3.8S72.1 33.8 70 33.8z" fill="#49beb7" data-fill-palette-color="accent"></path></svg></g></svg></g></svg></g><defs></defs></svg><rect width="395.52" height="110.99239416525141" fill="none" stroke="none" visibility="hidden"></rect></g></svg></g></svg>